<?xml version="1.0" encoding="UTF-8" standalone="no"?>
<!-- Created with Inkscape (http://www.inkscape.org/) -->

<svg
   xmlns:dc="http://purl.org/dc/elements/1.1/"
   xmlns:cc="http://creativecommons.org/ns#"
   xmlns:rdf="http://www.w3.org/1999/02/22-rdf-syntax-ns#"
   xmlns:svg="http://www.w3.org/2000/svg"
   xmlns="http://www.w3.org/2000/svg"
   xmlns:sodipodi="http://sodipodi.sourceforge.net/DTD/sodipodi-0.dtd"
   xmlns:inkscape="http://www.inkscape.org/namespaces/inkscape"
   width="56.399658mm"
   height="47.6521mm"
   viewBox="0 0 56.399658 47.6521"
   version="1.1"
   id="svg1275"
   inkscape:version="0.92.3 (unknown)"
   sodipodi:docname="infina.svg">
  <defs
     id="defs1269" />
  <sodipodi:namedview
     id="base"
     pagecolor="#ffffff"
     bordercolor="#666666"
     borderopacity="1.0"
     inkscape:pageopacity="0.0"
     inkscape:pageshadow="2"
     inkscape:zoom="0.35"
     inkscape:cx="-394.84655"
     inkscape:cy="344.33695"
     inkscape:document-units="mm"
     inkscape:current-layer="layer1"
     showgrid="false"
     inkscape:window-width="1366"
     inkscape:window-height="720"
     inkscape:window-x="0"
     inkscape:window-y="0"
     inkscape:window-maximized="1" />
  <metadata
     id="metadata1272">
    <rdf:RDF>
      <cc:Work
         rdf:about="">
        <dc:format>image/svg+xml</dc:format>
        <dc:type
           rdf:resource="http://purl.org/dc/dcmitype/StillImage" />
        <dc:title></dc:title>
      </cc:Work>
    </rdf:RDF>
  </metadata>
  <g
     inkscape:label="Layer 1"
     inkscape:groupmode="layer"
     id="layer1"
     transform="translate(-79.901365,-192.28705)">
    <g
       transform="matrix(0.35277777,0,0,0.35277777,331.21508,342.4323)"
       id="g1221">
      <path
         inkscape:connector-curvature="0"
         id="path1201"
         style="font-style:normal;font-variant:normal;font-weight:normal;font-stretch:normal;font-size:medium;line-height:1.25;font-family:'Code New Roman';-inkscape-font-specification:'Code New Roman, ';letter-spacing:0px;word-spacing:0px;fill:#3572b0;fill-opacity:1;stroke:none;stroke-width:0.5625"
         d="m -707.14121,-311.66951 q 0.42481,0 0.79102,0.16113 0.36621,0.14649 0.62988,0.42481 0.27832,0.27832 0.42481,0.64453 0.16113,0.35156 0.16113,0.77637 0,0.41015 -0.16113,0.77636 -0.14649,0.36621 -0.42481,0.64454 -0.26367,0.27832 -0.62988,0.43945 -0.36621,0.14648 -0.79102,0.14648 -0.4248,0 -0.79101,-0.14648 -0.36621,-0.16113 -0.64453,-0.43945 -0.26367,-0.27833 -0.42481,-0.64454 -0.14648,-0.36621 -0.14648,-0.77636 0,-0.42481 0.14648,-0.77637 0.16114,-0.36621 0.42481,-0.64453 0.27832,-0.27832 0.64453,-0.42481 0.36621,-0.16113 0.79101,-0.16113 z m 1.68457,6.16699 v 11.08887 q 0,0.57129 0.0586,0.87891 0.0586,0.29296 0.16113,0.43945 0.11719,0.13183 0.27832,0.16113 0.17578,0.0146 0.39551,0.0146 h 3.48633 v 2.12402 h -4.10157 q -1.3623,0 -2.10937,-0.74707 -0.74707,-0.74707 -0.74707,-2.03613 v -9.81445 h -4.35059 v -2.10938 z" />
      <path
         inkscape:connector-curvature="0"
         id="path1203"
         style="font-style:normal;font-variant:normal;font-weight:normal;font-stretch:normal;font-size:medium;line-height:1.25;font-family:'Code New Roman';-inkscape-font-specification:'Code New Roman, ';letter-spacing:0px;word-spacing:0px;fill:#3572b0;fill-opacity:1;stroke:none;stroke-width:0.5625"
         d="m -696.52109,-305.50252 h 2.27051 l 0.10254,2.37305 q 0.64453,-0.76172 1.24512,-1.25977 0.60058,-0.51269 1.17187,-0.82031 0.58594,-0.30762 1.18652,-0.4248 0.60059,-0.13184 1.24512,-0.13184 2.27051,0 3.42774,1.34766 1.17187,1.333 1.17187,4.02832 v 9.59472 h -2.54883 v -9.38964 q 0,-1.72852 -0.64453,-2.54883 -0.64453,-0.83496 -1.91894,-0.83496 -0.46875,0 -0.92286,0.14648 -0.43945,0.13184 -0.92285,0.4834 -0.4834,0.33691 -1.05468,0.92285 -0.55665,0.58594 -1.25977,1.46484 v 9.75586 h -2.54883 z" />
      <path
         inkscape:connector-curvature="0"
         id="path1205"
         style="font-style:normal;font-variant:normal;font-weight:normal;font-stretch:normal;font-size:medium;line-height:1.25;font-family:'Code New Roman';-inkscape-font-specification:'Code New Roman, ';letter-spacing:0px;word-spacing:0px;fill:#3572b0;fill-opacity:1;stroke:none;stroke-width:0.5625"
         d="m -668.54257,-307.71443 h -8.12989 v 6.21094 h 7.70508 v 2.18261 h -7.70508 v 8.52539 h -2.66601 v -19.1455 h 10.7959 z" />
      <path
         inkscape:connector-curvature="0"
         id="path1207"
         style="font-style:normal;font-variant:normal;font-weight:normal;font-stretch:normal;font-size:medium;line-height:1.25;font-family:'Code New Roman';-inkscape-font-specification:'Code New Roman, ';letter-spacing:0px;word-spacing:0px;fill:#3572b0;fill-opacity:1;stroke:none;stroke-width:0.5625"
         d="m -657.57089,-311.66951 q 0.4248,0 0.79101,0.16113 0.36621,0.14649 0.62989,0.42481 0.27832,0.27832 0.4248,0.64453 0.16113,0.35156 0.16113,0.77637 0,0.41015 -0.16113,0.77636 -0.14648,0.36621 -0.4248,0.64454 -0.26368,0.27832 -0.62989,0.43945 -0.36621,0.14648 -0.79101,0.14648 -0.42481,0 -0.79102,-0.14648 -0.36621,-0.16113 -0.64453,-0.43945 -0.26367,-0.27833 -0.4248,-0.64454 -0.14649,-0.36621 -0.14649,-0.77636 0,-0.42481 0.14649,-0.77637 0.16113,-0.36621 0.4248,-0.64453 0.27832,-0.27832 0.64453,-0.42481 0.36621,-0.16113 0.79102,-0.16113 z m 1.68457,6.16699 v 11.08887 q 0,0.57129 0.0586,0.87891 0.0586,0.29296 0.16113,0.43945 0.11719,0.13183 0.27832,0.16113 0.17579,0.0146 0.39551,0.0146 h 3.48633 v 2.12402 h -4.10156 q -1.36231,0 -2.10938,-0.74707 -0.74707,-0.74707 -0.74707,-2.03613 v -9.81445 h -4.35058 v -2.10938 z" />
      <path
         inkscape:connector-curvature="0"
         id="path1209"
         style="font-style:normal;font-variant:normal;font-weight:normal;font-stretch:normal;font-size:medium;line-height:1.25;font-family:'Code New Roman';-inkscape-font-specification:'Code New Roman, ';letter-spacing:0px;word-spacing:0px;fill:#3572b0;fill-opacity:1;stroke:none;stroke-width:0.5625"
         d="m -646.95078,-305.50252 h 2.27051 l 0.10254,2.37305 q 0.64453,-0.76172 1.24512,-1.25977 0.60058,-0.51269 1.17187,-0.82031 0.58594,-0.30762 1.18653,-0.4248 0.60058,-0.13184 1.24511,-0.13184 2.27051,0 3.42774,1.34766 1.17187,1.333 1.17187,4.02832 v 9.59472 h -2.54883 v -9.38964 q 0,-1.72852 -0.64453,-2.54883 -0.64453,-0.83496 -1.91894,-0.83496 -0.46875,0 -0.92285,0.14648 -0.43946,0.13184 -0.92285,0.4834 -0.4834,0.33691 -1.05469,0.92285 -0.55664,0.58594 -1.25977,1.46484 v 9.75586 h -2.54883 z" />
      <path
         inkscape:connector-curvature="0"
         id="path1211"
         style="font-style:normal;font-variant:normal;font-weight:normal;font-stretch:normal;font-size:medium;line-height:1.25;font-family:'Code New Roman';-inkscape-font-specification:'Code New Roman, ';letter-spacing:0px;word-spacing:0px;fill:#3572b0;fill-opacity:1;stroke:none;stroke-width:0.5625"
         d="m -620.9791,-290.79549 -0.14648,-2.69531 q -2.08008,2.95899 -4.95117,2.95899 -1.28907,0 -2.24121,-0.52735 -0.95215,-0.52734 -1.59668,-1.49414 -0.62989,-0.9668 -0.95215,-2.31445 -0.30762,-1.34766 -0.30762,-2.97363 0,-1.58204 0.41016,-3.00293 0.4248,-1.4209 1.28906,-2.49024 0.87891,-1.08398 2.24121,-1.71387 1.36231,-0.62988 3.25195,-0.62988 0.74707,0 1.4795,0.11719 0.73242,0.11719 1.55273,0.36621 l 2.25586,-0.57129 v 14.9707 z m -7.58789,-7.20703 q 0,1.23047 0.17578,2.21192 0.19043,0.98144 0.55664,1.66992 0.38086,0.67383 0.9375,1.04004 0.57129,0.36621 1.33301,0.36621 0.9668,0 2.03614,-0.86426 1.08398,-0.86426 2.2705,-2.56348 v -6.82617 q -0.58593,-0.27832 -1.333,-0.4541 -0.73243,-0.17578 -1.56739,-0.17578 -2.15332,0 -3.28125,1.4209 -1.12793,1.4209 -1.12793,4.1748 z" />
      <path
         inkscape:connector-curvature="0"
         id="path1213"
         style="font-style:normal;font-variant:normal;font-weight:normal;font-stretch:normal;font-size:medium;line-height:1.25;font-family:'Code New Roman';-inkscape-font-specification:'Code New Roman, ';letter-spacing:0px;word-spacing:0px;fill:#3572b0;fill-opacity:1;stroke:none;stroke-width:0.5625"
         d="m -602.05332,-291.00056 q -0.86425,0.21972 -1.7871,0.30761 -0.92286,0.10254 -1.875,0.10254 -2.76856,0 -4.13086,-1.24512 -1.36231,-1.25976 -1.36231,-3.85253 v -7.67579 h -4.11621 v -2.13867 h 4.11621 v -4.04297 l 2.54883,-0.65918 v 4.70215 h 6.60644 v 2.13867 h -6.60644 v 7.47071 q 0,1.58203 0.83496,2.37304 0.84961,0.77637 2.49023,0.77637 0.70313,0 1.53809,-0.10254 0.83496,-0.11719 1.74316,-0.35156 z" />
      <path
         inkscape:connector-curvature="0"
         id="path1215"
         style="font-style:normal;font-variant:normal;font-weight:normal;font-stretch:normal;font-size:medium;line-height:1.25;font-family:'Code New Roman';-inkscape-font-specification:'Code New Roman, ';letter-spacing:0px;word-spacing:0px;fill:#3572b0;fill-opacity:1;stroke:none;stroke-width:0.5625"
         d="m -584.95859,-298.92537 q 0,0.54199 -0.0146,0.9082 -0.0147,0.36621 -0.0439,0.68848 h -10.32715 q 0,2.25586 1.25976,3.47168 1.25977,1.20117 3.63282,1.20117 0.64453,0 1.28906,-0.0439 0.64453,-0.0586 1.24512,-0.14649 0.60058,-0.0879 1.14258,-0.19043 0.55664,-0.11718 1.02539,-0.24902 v 2.09473 q -1.04004,0.29296 -2.3584,0.46875 -1.30371,0.19043 -2.70996,0.19043 -1.88965,0 -3.25196,-0.5127 -1.3623,-0.5127 -2.24121,-1.47949 -0.86426,-0.98145 -1.28906,-2.3877 -0.41016,-1.4209 -0.41016,-3.20801 0,-1.55273 0.43946,-2.92968 0.4541,-1.3916 1.30371,-2.43164 0.86426,-1.05469 2.10937,-1.66993 1.24512,-0.61523 2.82715,-0.61523 1.53809,0 2.72461,0.4834 1.18652,0.4834 1.99219,1.37695 0.82031,0.87891 1.23047,2.15332 0.4248,1.25977 0.4248,2.82715 z m -2.65137,-0.36621 q 0.044,-0.98145 -0.19043,-1.78711 -0.23437,-0.82031 -0.73242,-1.40625 -0.4834,-0.58594 -1.21582,-0.9082 -0.73242,-0.33692 -1.69922,-0.33692 -0.83496,0 -1.52343,0.32227 -0.68848,0.32226 -1.18653,0.9082 -0.49804,0.58594 -0.80566,1.40625 -0.30762,0.82031 -0.38086,1.80176 z" />
      <path
         inkscape:connector-curvature="0"
         id="path1217"
         style="font-style:normal;font-variant:normal;font-weight:normal;font-stretch:normal;font-size:medium;line-height:1.25;font-family:'Code New Roman';-inkscape-font-specification:'Code New Roman, ';letter-spacing:0px;word-spacing:0px;fill:#3572b0;fill-opacity:1;stroke:none;stroke-width:0.5625"
         d="m -569.43124,-291.33748 q -0.9961,0.38086 -2.05079,0.55664 -1.04004,0.19043 -2.15332,0.19043 -3.48632,0 -5.37597,-1.88965 -1.875,-1.88965 -1.875,-5.52246 0,-1.74316 0.54199,-3.16406 0.54199,-1.4209 1.52344,-2.43164 0.98144,-1.01074 2.34375,-1.55274 1.3623,-0.55664 3.00293,-0.55664 1.14257,0 2.13867,0.16114 0.99609,0.16113 1.9043,0.52734 v 2.43164 q -0.95215,-0.49805 -1.94825,-0.71777 -0.98144,-0.23438 -2.03613,-0.23438 -0.98145,0 -1.86035,0.38086 -0.86426,0.36621 -1.52344,1.06934 -0.65918,0.70312 -1.04004,1.71387 -0.38086,1.01074 -0.38086,2.28515 0,2.66602 1.28907,3.99903 1.30371,1.31835 3.60351,1.31835 1.04004,0 2.00684,-0.23437 0.98144,-0.23438 1.88965,-0.70313 z" />
      <path
         inkscape:connector-curvature="0"
         id="path1219"
         style="font-style:normal;font-variant:normal;font-weight:normal;font-stretch:normal;font-size:medium;line-height:1.25;font-family:'Code New Roman';-inkscape-font-specification:'Code New Roman, ';letter-spacing:0px;word-spacing:0px;fill:#3572b0;fill-opacity:1;stroke:none;stroke-width:0.5625"
         d="m -552.5123,-290.79549 h -2.54883 v -9.38964 q 0,-1.69922 -0.64453,-2.53418 -0.62988,-0.84961 -1.81641,-0.84961 -0.51269,0 -0.96679,0.14648 -0.43946,0.13184 -0.92285,0.4834 -0.4834,0.33691 -1.05469,0.92285 -0.57129,0.58594 -1.31836,1.46484 v 9.75586 h -2.54883 v -20.69824 h 2.54883 v 5.99121 l -0.0879,2.31446 q 0.60058,-0.71778 1.17187,-1.20118 0.58594,-0.49804 1.15723,-0.80566 0.58594,-0.30762 1.18652,-0.43945 0.60059,-0.13184 1.24512,-0.13184 2.19727,0 3.39844,1.34766 1.20117,1.333 1.20117,4.02832 z" />
    </g>
    <g
       id="g1239"
       transform="matrix(0.70555554,0,0,0.70555554,235.6341,496.63186)">
      <g
         id="g1229">
        <path
           inkscape:connector-curvature="0"
           id="path1223"
           style="font-style:normal;font-weight:normal;font-size:medium;line-height:1.25;font-family:sans-serif;letter-spacing:0px;word-spacing:0px;fill:#3572b0;fill-opacity:1;stroke:none;stroke-width:0.75"
           d="m -180.16208,-389.26901 h -1.46485 l -0.0146,-4.40918 q -1.53809,-0.0293 -3.07618,-0.35156 -1.53808,-0.33692 -3.09082,-0.9961 v -2.63671 q 1.49414,0.9375 3.01758,1.42089 1.53809,0.46875 3.16406,0.4834 v -6.67969 q -3.2373,-0.52734 -4.71679,-1.7871 -1.46485,-1.25977 -1.46485,-3.45704 0,-2.38769 1.59668,-3.76464 1.59668,-1.37696 4.58496,-1.58204 v -3.44238 h 1.46485 v 3.39844 q 1.3623,0.0586 2.63672,0.29297 1.27441,0.21972 2.49023,0.61523 v 2.56348 q -1.21582,-0.61524 -2.50488,-0.95215 -1.27442,-0.33691 -2.62207,-0.39551 v 6.25489 q 3.32519,0.51269 4.89258,1.83105 1.56738,1.31836 1.56738,3.60352 0,2.47558 -1.66992,3.91113 -1.65528,1.4209 -4.79004,1.64062 z m -1.46485,-15.68848 v -6.00586 q -1.69921,0.19043 -2.59277,0.9668 -0.89355,0.77637 -0.89355,2.06543 0,1.25977 0.82031,1.96289 0.83496,0.70313 2.66601,1.01074 z m 1.46485,2.8125 v 6.34278 q 1.86035,-0.24903 2.79785,-1.05469 0.95215,-0.80566 0.95215,-2.12402 0,-1.28907 -0.9082,-2.05079 -0.89356,-0.76171 -2.8418,-1.11328 z" />
        <path
           inkscape:connector-curvature="0"
           id="path1225"
           style="font-style:normal;font-weight:normal;font-size:medium;line-height:1.25;font-family:sans-serif;letter-spacing:0px;word-spacing:0px;fill:#3572b0;fill-opacity:1;stroke:none;stroke-width:0.75"
           d="m -190.46078,-408.23141 -15.11719,5.37597 15.11719,5.34668 v 2.66602 l -18.7793,-6.81153 v -2.43164 l 18.7793,-6.81152 z" />
        <path
           inkscape:connector-curvature="0"
           id="path1227"
           style="font-style:normal;font-weight:normal;font-size:medium;line-height:1.25;font-family:sans-serif;letter-spacing:0px;word-spacing:0px;fill:#3572b0;fill-opacity:1;stroke:none;stroke-width:0.75"
           d="m -171.04983,-408.23141 v -2.66602 l 18.7793,6.81152 v 2.43164 l -18.7793,6.81153 v -2.66602 l 15.08789,-5.34668 z" />
      </g>
      <g
         transform="rotate(90,-180.75531,-402.87009)"
         id="g1237">
        <path
           d="m -180.16208,-389.26901 h -1.46485 l -0.0146,-4.40918 q -1.53809,-0.0293 -3.07618,-0.35156 -1.53808,-0.33692 -3.09082,-0.9961 v -2.63671 q 1.49414,0.9375 3.01758,1.42089 1.53809,0.46875 3.16406,0.4834 v -6.67969 q -3.2373,-0.52734 -4.71679,-1.7871 -1.46485,-1.25977 -1.46485,-3.45704 0,-2.38769 1.59668,-3.76464 1.59668,-1.37696 4.58496,-1.58204 v -3.44238 h 1.46485 v 3.39844 q 1.3623,0.0586 2.63672,0.29297 1.27441,0.21972 2.49023,0.61523 v 2.56348 q -1.21582,-0.61524 -2.50488,-0.95215 -1.27442,-0.33691 -2.62207,-0.39551 v 6.25489 q 3.32519,0.51269 4.89258,1.83105 1.56738,1.31836 1.56738,3.60352 0,2.47558 -1.66992,3.91113 -1.65528,1.4209 -4.79004,1.64062 z m -1.46485,-15.68848 v -6.00586 q -1.69921,0.19043 -2.59277,0.9668 -0.89355,0.77637 -0.89355,2.06543 0,1.25977 0.82031,1.96289 0.83496,0.70313 2.66601,1.01074 z m 1.46485,2.8125 v 6.34278 q 1.86035,-0.24903 2.79785,-1.05469 0.95215,-0.80566 0.95215,-2.12402 0,-1.28907 -0.9082,-2.05079 -0.89356,-0.76171 -2.8418,-1.11328 z"
           style="font-style:normal;font-weight:normal;font-size:medium;line-height:1.25;font-family:sans-serif;letter-spacing:0px;word-spacing:0px;fill:#3572b0;fill-opacity:1;stroke:none;stroke-width:0.75"
           id="path1231"
           inkscape:connector-curvature="0" />
        <path
           d="m -190.46078,-408.23141 -15.11719,5.37597 15.11719,5.34668 v 2.66602 l -18.7793,-6.81153 v -2.43164 l 18.7793,-6.81152 z"
           style="font-style:normal;font-weight:normal;font-size:medium;line-height:1.25;font-family:sans-serif;letter-spacing:0px;word-spacing:0px;fill:#3572b0;fill-opacity:1;stroke:none;stroke-width:0.75"
           id="path1233"
           inkscape:connector-curvature="0" />
        <path
           d="m -171.04983,-408.23141 v -2.66602 l 18.7793,6.81152 v 2.43164 l -18.7793,6.81153 v -2.66602 l 15.08789,-5.34668 z"
           style="font-style:normal;font-weight:normal;font-size:medium;line-height:1.25;font-family:sans-serif;letter-spacing:0px;word-spacing:0px;fill:#3572b0;fill-opacity:1;stroke:none;stroke-width:0.75"
           id="path1235"
           inkscape:connector-curvature="0" />
      </g>
    </g>
  </g>
</svg>
