<?xml version="1.0" encoding="UTF-8" standalone="no"?>
<svg
   xmlns:dc="http://purl.org/dc/elements/1.1/"
   xmlns:cc="http://creativecommons.org/ns#"
   xmlns:rdf="http://www.w3.org/1999/02/22-rdf-syntax-ns#"
   xmlns:svg="http://www.w3.org/2000/svg"
   xmlns="http://www.w3.org/2000/svg"
   xmlns:sodipodi="http://sodipodi.sourceforge.net/DTD/sodipodi-0.dtd"
   xmlns:inkscape="http://www.inkscape.org/namespaces/inkscape"
   version="1.0"
   width="113.93909pt"
   height="113.93909pt"
   viewBox="0 0 113.9391 113.9391"
   preserveAspectRatio="xMidYMid meet"
   viewport-fill="red"
   id="svg8"
   sodipodi:docname="logo.svg"
   inkscape:version="0.92.3 (unknown)">
  <metadata
     id="metadata14">
    <rdf:RDF>
      <cc:Work
         rdf:about="">
        <dc:format>image/svg+xml</dc:format>
        <dc:type
           rdf:resource="http://purl.org/dc/dcmitype/StillImage" />
        <dc:title></dc:title>
      </cc:Work>
    </rdf:RDF>
  </metadata>
  <defs
     id="defs12" />
  <sodipodi:namedview
     pagecolor="#ffffff"
     bordercolor="#666666"
     borderopacity="1"
     objecttolerance="10"
     gridtolerance="10"
     guidetolerance="10"
     inkscape:pageopacity="0"
     inkscape:pageshadow="2"
     inkscape:window-width="1366"
     inkscape:window-height="720"
     id="namedview10"
     showgrid="false"
     inkscape:zoom="0.35355339"
     inkscape:cx="207.96268"
     inkscape:cy="-58.246268"
     inkscape:window-x="0"
     inkscape:window-y="0"
     inkscape:window-maximized="1"
     inkscape:current-layer="g882" />
  <g
     id="g882"
     transform="translate(691.5397,448.94313)">
    <g
       transform="matrix(2,0,0,2,-273.05954,413.76659)"
       id="g1155">
      <g
         id="g1145">
        <path
           d="m -180.16208,-389.26901 h -1.46485 l -0.0146,-4.40918 q -1.53809,-0.0293 -3.07618,-0.35156 -1.53808,-0.33692 -3.09082,-0.9961 v -2.63671 q 1.49414,0.9375 3.01758,1.42089 1.53809,0.46875 3.16406,0.4834 v -6.67969 q -3.2373,-0.52734 -4.71679,-1.7871 -1.46485,-1.25977 -1.46485,-3.45704 0,-2.38769 1.59668,-3.76464 1.59668,-1.37696 4.58496,-1.58204 v -3.44238 h 1.46485 v 3.39844 q 1.3623,0.0586 2.63672,0.29297 1.27441,0.21972 2.49023,0.61523 v 2.56348 q -1.21582,-0.61524 -2.50488,-0.95215 -1.27442,-0.33691 -2.62207,-0.39551 v 6.25489 q 3.32519,0.51269 4.89258,1.83105 1.56738,1.31836 1.56738,3.60352 0,2.47558 -1.66992,3.91113 -1.65528,1.4209 -4.79004,1.64062 z m -1.46485,-15.68848 v -6.00586 q -1.69921,0.19043 -2.59277,0.9668 -0.89355,0.77637 -0.89355,2.06543 0,1.25977 0.82031,1.96289 0.83496,0.70313 2.66601,1.01074 z m 1.46485,2.8125 v 6.34278 q 1.86035,-0.24903 2.79785,-1.05469 0.95215,-0.80566 0.95215,-2.12402 0,-1.28907 -0.9082,-2.05079 -0.89356,-0.76171 -2.8418,-1.11328 z"
           style="font-style:normal;font-weight:normal;font-size:medium;line-height:1.25;font-family:sans-serif;letter-spacing:0px;word-spacing:0px;fill:#3572b0;fill-opacity:1;stroke:none;stroke-width:0.75"
           id="path1139"
           inkscape:connector-curvature="0" />
        <path
           d="m -190.46078,-408.23141 -15.11719,5.37597 15.11719,5.34668 v 2.66602 l -18.7793,-6.81153 v -2.43164 l 18.7793,-6.81152 z"
           style="font-style:normal;font-weight:normal;font-size:medium;line-height:1.25;font-family:sans-serif;letter-spacing:0px;word-spacing:0px;fill:#3572b0;fill-opacity:1;stroke:none;stroke-width:0.75"
           id="path1141"
           inkscape:connector-curvature="0" />
        <path
           d="m -171.04983,-408.23141 v -2.66602 l 18.7793,6.81152 v 2.43164 l -18.7793,6.81153 v -2.66602 l 15.08789,-5.34668 z"
           style="font-style:normal;font-weight:normal;font-size:medium;line-height:1.25;font-family:sans-serif;letter-spacing:0px;word-spacing:0px;fill:#3572b0;fill-opacity:1;stroke:none;stroke-width:0.75"
           id="path1143"
           inkscape:connector-curvature="0" />
      </g>
      <g
         id="g1153"
         transform="rotate(90,-180.75531,-402.87009)">
        <path
           inkscape:connector-curvature="0"
           id="path1147"
           style="font-style:normal;font-weight:normal;font-size:medium;line-height:1.25;font-family:sans-serif;letter-spacing:0px;word-spacing:0px;fill:#3572b0;fill-opacity:1;stroke:none;stroke-width:0.75"
           d="m -180.16208,-389.26901 h -1.46485 l -0.0146,-4.40918 q -1.53809,-0.0293 -3.07618,-0.35156 -1.53808,-0.33692 -3.09082,-0.9961 v -2.63671 q 1.49414,0.9375 3.01758,1.42089 1.53809,0.46875 3.16406,0.4834 v -6.67969 q -3.2373,-0.52734 -4.71679,-1.7871 -1.46485,-1.25977 -1.46485,-3.45704 0,-2.38769 1.59668,-3.76464 1.59668,-1.37696 4.58496,-1.58204 v -3.44238 h 1.46485 v 3.39844 q 1.3623,0.0586 2.63672,0.29297 1.27441,0.21972 2.49023,0.61523 v 2.56348 q -1.21582,-0.61524 -2.50488,-0.95215 -1.27442,-0.33691 -2.62207,-0.39551 v 6.25489 q 3.32519,0.51269 4.89258,1.83105 1.56738,1.31836 1.56738,3.60352 0,2.47558 -1.66992,3.91113 -1.65528,1.4209 -4.79004,1.64062 z m -1.46485,-15.68848 v -6.00586 q -1.69921,0.19043 -2.59277,0.9668 -0.89355,0.77637 -0.89355,2.06543 0,1.25977 0.82031,1.96289 0.83496,0.70313 2.66601,1.01074 z m 1.46485,2.8125 v 6.34278 q 1.86035,-0.24903 2.79785,-1.05469 0.95215,-0.80566 0.95215,-2.12402 0,-1.28907 -0.9082,-2.05079 -0.89356,-0.76171 -2.8418,-1.11328 z" />
        <path
           inkscape:connector-curvature="0"
           id="path1149"
           style="font-style:normal;font-weight:normal;font-size:medium;line-height:1.25;font-family:sans-serif;letter-spacing:0px;word-spacing:0px;fill:#3572b0;fill-opacity:1;stroke:none;stroke-width:0.75"
           d="m -190.46078,-408.23141 -15.11719,5.37597 15.11719,5.34668 v 2.66602 l -18.7793,-6.81153 v -2.43164 l 18.7793,-6.81152 z" />
        <path
           inkscape:connector-curvature="0"
           id="path1151"
           style="font-style:normal;font-weight:normal;font-size:medium;line-height:1.25;font-family:sans-serif;letter-spacing:0px;word-spacing:0px;fill:#3572b0;fill-opacity:1;stroke:none;stroke-width:0.75"
           d="m -171.04983,-408.23141 v -2.66602 l 18.7793,6.81152 v 2.43164 l -18.7793,6.81153 v -2.66602 l 15.08789,-5.34668 z" />
      </g>
    </g>
  </g>
</svg>
